<svg width="14" height="14" viewBox="0 0 14 14" fill="none" xmlns="http://www.w3.org/2000/svg">
<g clip-path="url(#clip0_12869_5317)">
<path d="M3.69566 1.55566C2.51441 1.55566 1.55677 2.5133 1.55677 3.69455V4.80046C1.55677 5.05809 1.45469 5.30601 1.2724 5.4883L0.171354 6.58691C-0.0571181 6.81539 -0.0571181 7.18483 0.171354 7.41087L1.2724 8.51191C1.45469 8.69421 1.55677 8.94212 1.55677 9.19976V10.3057C1.55677 11.4869 2.51441 12.4446 3.69566 12.4446H4.86233C5.18559 12.4446 5.44566 12.1845 5.44566 11.8612C5.44566 11.538 5.18559 11.2779 4.86233 11.2779H3.69566C3.15851 11.2779 2.72344 10.8428 2.72344 10.3057V9.19976C2.72344 8.63344 2.4974 8.089 2.09635 7.68796L1.40851 7.00011L2.09635 6.31226C2.4974 5.91122 2.72344 5.36678 2.72344 4.80046V3.69455C2.72344 3.1574 3.15851 2.72233 3.69566 2.72233H4.86233C5.18559 2.72233 5.44566 2.46226 5.44566 2.139C5.44566 1.81573 5.18559 1.55566 4.86233 1.55566H3.69566ZM10.3068 1.55566H9.1401C8.81684 1.55566 8.55677 1.81573 8.55677 2.139C8.55677 2.46226 8.81684 2.72233 9.1401 2.72233H10.3068C10.8439 2.72233 11.279 3.1574 11.279 3.69455V4.80046C11.279 5.36678 11.505 5.91122 11.9061 6.31226L12.5939 7.00011L11.9061 7.68796C11.505 8.089 11.279 8.63344 11.279 9.19976V10.3057C11.279 10.8428 10.8439 11.2779 10.3068 11.2779H9.1401C8.81684 11.2779 8.55677 11.538 8.55677 11.8612C8.55677 12.1845 8.81684 12.4446 9.1401 12.4446H10.3068C11.488 12.4446 12.4457 11.4869 12.4457 10.3057V9.19976C12.4457 8.94212 12.5477 8.69421 12.73 8.51191L13.8311 7.4133C14.0595 7.18483 14.0595 6.81539 13.8311 6.58934L12.73 5.4883C12.5477 5.30601 12.4457 5.05809 12.4457 4.80046V3.69455C12.4457 2.5133 11.488 1.55566 10.3068 1.55566Z" fill="#6B6F76"/>
</g>
<defs>
<clipPath id="clip0_12869_5317">
<rect width="14" height="14" fill="white"/>
</clipPath>
</defs>
</svg>
