<svg width="14" height="14" viewBox="0 0 14 14" fill="none" xmlns="http://www.w3.org/2000/svg">
<path d="M2.625 2.1875C2.38438 2.1875 2.1875 2.38438 2.1875 2.625V11.375C2.1875 11.6156 2.38438 11.8125 2.625 11.8125H11.375C11.6156 11.8125 11.8125 11.6156 11.8125 11.375V2.625C11.8125 2.38438 11.6156 2.1875 11.375 2.1875H2.625ZM0.875 2.625C0.875 1.65977 1.65977 0.875 2.625 0.875H11.375C12.3402 0.875 13.125 1.65977 13.125 2.625V11.375C13.125 12.3402 12.3402 13.125 11.375 13.125H2.625C1.65977 13.125 0.875 12.3402 0.875 11.375V2.625ZM4.15625 3.9375H7H9.84375C10.2074 3.9375 10.5 4.23008 10.5 4.59375C10.5 4.95742 10.2074 5.25 9.84375 5.25H7.65625V9.84375C7.65625 10.2074 7.36367 10.5 7 10.5C6.63633 10.5 6.34375 10.2074 6.34375 9.84375V5.25H4.15625C3.79258 5.25 3.5 4.95742 3.5 4.59375C3.5 4.23008 3.79258 3.9375 4.15625 3.9375Z" fill="#6B6F76"/>
</svg>
