<svg viewBox="0 0 14 14" fill="none" xmlns="http://www.w3.org/2000/svg">
    <g clip-path="url(#clip0_11365_245221)">
        <path d="M1.55556 0.777344C0.697569 0.777344 0 1.47491 0 2.3329V9.3329C0 10.1909 0.697569 10.8885 1.55556 10.8885H5.83333L5.57326 11.6662H3.88889C3.45868 11.6662 3.11111 12.0138 3.11111 12.444C3.11111 12.8742 3.45868 13.2218 3.88889 13.2218H10.1111C10.5413 13.2218 10.8889 12.8742 10.8889 12.444C10.8889 12.0138 10.5413 11.6662 10.1111 11.6662H8.42674L8.16667 10.8885H12.4444C13.3024 10.8885 14 10.1909 14 9.3329V2.3329C14 1.47491 13.3024 0.777344 12.4444 0.777344H1.55556ZM12.4444 2.3329V7.77734H1.55556V2.3329H12.4444Z" fill="currentColor"/>
    </g>
    <defs>
        <clipPath id="clip0_11365_245221">
            <rect width="100%" height="100%" fill="white"/>
        </clipPath>
    </defs>
</svg>
