<svg viewBox="0 0 14 14" fill="none" xmlns="http://www.w3.org/2000/svg">
    <path d="M8.75 1.3125V1.75C8.75 1.99063 8.55312 2.1875 8.3125 2.1875H5.6875C5.44688 2.1875 5.25 1.99063 5.25 1.75V1.3125H4.375C3.89102 1.3125 3.5 1.70352 3.5 2.1875V11.8125C3.5 12.2965 3.89102 12.6875 4.375 12.6875H9.625C10.109 12.6875 10.5 12.2965 10.5 11.8125V2.1875C10.5 1.70352 10.109 1.3125 9.625 1.3125H8.75ZM2.1875 2.1875C2.1875 0.978906 3.16641 0 4.375 0H9.625C10.8336 0 11.8125 0.978906 11.8125 2.1875V11.8125C11.8125 13.0211 10.8336 14 9.625 14H4.375C3.16641 14 2.1875 13.0211 2.1875 11.8125V2.1875Z" fill="currentColor" />
</svg>
