<svg width="12" height="12" viewBox="0 0 12 12" fill="none" xmlns="http://www.w3.org/2000/svg">
<path d="M1.28571 6.42857H5.35714V3.42857H1.28571V6.42857ZM0 7.71429V1.71429C0 0.76875 0.76875 0 1.71429 0H10.2857C11.2312 0 12 0.76875 12 1.71429V10.2857C12 11.2312 11.2312 12 10.2857 12H1.71429C0.76875 12 0 11.2312 0 10.2857V7.71429ZM10.7143 6.42857V3.42857H6.64286V6.42857H10.7143ZM10.7143 7.71429H6.64286V10.7143H10.2857C10.5214 10.7143 10.7143 10.5214 10.7143 10.2857V7.71429ZM5.35714 10.7143V7.71429H1.28571V10.2857C1.28571 10.5214 1.47857 10.7143 1.71429 10.7143H5.35714Z" fill="#6B6F76"/>
</svg>
